<svg width="20" height="20" viewBox="0 0 20 20" fill="none" xmlns="http://www.w3.org/2000/svg">
<g id="Phone">
<path id="Vector" d="M12.843 11.3547C12.9295 11.2971 13.0291 11.262 13.1326 11.2526C13.2362 11.2432 13.3404 11.2597 13.4359 11.3008L17.1203 12.9516C17.2445 13.0046 17.3481 13.0965 17.4157 13.2134C17.4833 13.3303 17.5112 13.4659 17.4953 13.6C17.3739 14.5071 16.9273 15.3392 16.2383 15.9416C15.5494 16.544 14.6652 16.8757 13.75 16.875C10.9321 16.875 8.22957 15.7556 6.23699 13.763C4.24442 11.7704 3.125 9.06792 3.125 6.25C3.1243 5.33485 3.456 4.45059 4.05841 3.76167C4.66082 3.07275 5.49293 2.62606 6.4 2.50469C6.53409 2.48876 6.66973 2.51668 6.78662 2.58428C6.90351 2.65188 6.99537 2.75552 7.04844 2.87969L8.69922 6.56719C8.73978 6.6619 8.7563 6.76517 8.7473 6.8678C8.7383 6.97044 8.70407 7.06926 8.64766 7.15547L6.97813 9.14062C6.9189 9.22999 6.88388 9.33319 6.87649 9.44013C6.86909 9.54708 6.88958 9.65412 6.93594 9.75078C7.58203 11.0734 8.94922 12.4242 10.2758 13.0641C10.373 13.1102 10.4805 13.1302 10.5878 13.1222C10.695 13.1141 10.7983 13.0782 10.8875 13.018L12.843 11.3547Z" stroke="#FCFCFC" stroke-linecap="round" stroke-linejoin="round"/>
</g>
</svg>
